<svg xmlns="http://www.w3.org/2000/svg" width="289" height="285" viewBox="0 0 289 285" version="1.1"><path d="M 178.102 89.733 L 143.708 109.466 144.354 124.392 C 144.709 132.601, 145.010 169.509, 145.022 206.409 L 145.044 273.500 154.548 278.817 C 159.775 281.741, 165.502 284.366, 167.276 284.648 C 170.067 285.094, 174.781 282.704, 202.414 266.831 C 222.306 255.406, 235.114 247.437, 236.414 245.679 C 238.356 243.054, 238.522 241.322, 238.817 220.600 L 239.134 198.341 263.506 190.998 L 287.878 183.655 288.512 177.578 C 288.860 174.235, 289 157.923, 288.823 141.329 L 288.500 111.158 286 108.496 C 284.625 107.031, 279 103.301, 273.500 100.207 C 268 97.112, 253.834 89.050, 242.020 82.290 C 224.328 72.167, 219.831 70, 216.518 70 C 213.120 70, 207.162 73.060, 178.102 89.733" stroke="none" fill="#74ccf7" fill-rule="evenodd"/><path d="M 116 1.755 C 109.203 5.359, 34.456 48.229, 31.305 50.332 C 29.548 51.504, 27.635 53.505, 27.055 54.779 C 26.436 56.137, 25.998 64.822, 25.994 75.797 L 25.989 94.500 15.378 100.500 C 9.542 103.800, 3.920 107.573, 2.884 108.885 C 1.112 111.128, 1 113.578, 1 150.079 L 1 188.888 3.250 191.455 C 4.487 192.867, 15.625 199.833, 28 206.935 L 50.500 219.849 51 232.399 C 51.431 243.225, 51.775 245.220, 53.500 246.923 C 54.600 248.009, 69.675 257.049, 87 267.013 C 114.727 282.958, 118.919 285.074, 122 284.680 C 123.925 284.434, 129.775 281.754, 135 278.725 L 144.500 273.216 144.536 191.098 L 144.573 108.981 178.529 89.490 C 207.223 73.021, 213.110 70, 216.512 70 C 219.833 70, 224.296 72.157, 242.019 82.327 L 263.500 94.653 263.773 76.702 C 264.009 61.183, 263.806 58.261, 262.273 55.126 C 260.676 51.860, 256.082 48.970, 216.016 26.023 C 180.756 5.828, 170.802 0.550, 168.016 0.568 C 165.579 0.583, 161.466 2.351, 154.618 6.326 L 144.736 12.061 134.954 6.523 C 123.275 -0.090, 120.702 -0.737, 116 1.755 M 288.116 180.559 L 288 183.618 263.500 191 L 239 198.382 239 208.691 C 239 214.361, 239.281 219, 239.623 219 C 241.113 219, 283.427 194.274, 285.552 192.162 C 287.934 189.794, 289.628 182.933, 288.712 179.367 C 288.412 178.198, 288.189 178.644, 288.116 180.559" stroke="none" fill="#1277bf" fill-rule="evenodd"/></svg>