<svg xmlns="http://www.w3.org/2000/svg" width="1848" height="1848" viewBox="0 0 1848 1848" version="1.1"><path d="M 683.191 840.750 C 553.245 1132.113, 446.063 1372.415, 445.009 1374.755 L 443.093 1379.011 532.144 1378.755 L 621.196 1378.500 668.848 1259.500 L 716.500 1140.500 919.075 1140.248 L 1121.650 1139.995 1169.551 1259.498 L 1217.453 1379 1306.310 1379 C 1357.218 1379, 1395.024 1378.623, 1394.833 1378.118 C 1392.585 1372.168, 920.406 311, 920.007 311 C 919.704 311, 813.137 549.387, 683.191 840.750 M 850.500 824.131 C 812.550 915.481, 781.350 990.621, 781.167 991.110 C 780.973 991.627, 839.155 992, 920 992 C 1000.845 992, 1059.027 991.627, 1058.833 991.110 C 1055.693 982.730, 920.353 658.042, 920 658.042 C 919.725 658.042, 888.450 732.782, 850.500 824.131" stroke="none" fill="#fbfbfb" fill-rule="evenodd"/><path d="M 538.992 264.202 C 329.171 339.014, 157.371 400.339, 157.214 400.481 C 156.377 401.235, 273.277 1408.639, 274.315 1409.624 C 277.379 1412.532, 919.411 1767.126, 920.905 1766.735 C 922.089 1766.425, 1565.340 1410.678, 1566.639 1409.614 C 1566.986 1409.330, 1683.099 400.766, 1682.817 400.484 C 1682.643 400.309, 1511.275 339.109, 1302 264.484 C 1092.725 189.858, 921.271 128.661, 920.992 128.491 C 920.712 128.320, 748.812 189.390, 538.992 264.202 M 683.191 840.750 C 553.245 1132.113, 446.063 1372.415, 445.009 1374.755 L 443.093 1379.011 532.144 1378.755 L 621.196 1378.500 668.848 1259.500 L 716.500 1140.500 919.075 1140.248 L 1121.650 1139.995 1169.551 1259.498 L 1217.453 1379 1306.310 1379 C 1357.218 1379, 1395.024 1378.623, 1394.833 1378.118 C 1392.585 1372.168, 920.406 311, 920.007 311 C 919.704 311, 813.137 549.387, 683.191 840.750 M 850.500 824.131 C 812.550 915.481, 781.350 990.621, 781.167 991.110 C 780.973 991.627, 839.155 992, 920 992 C 1000.845 992, 1059.027 991.627, 1058.833 991.110 C 1055.693 982.730, 920.353 658.042, 920 658.042 C 919.725 658.042, 888.450 732.782, 850.500 824.131" stroke="none" fill="#d0042c" fill-rule="evenodd"/></svg>