<svg xmlns="http://www.w3.org/2000/svg" width="500" height="476" viewBox="0 0 500 476" version="1.1"><path d="M 180.914 72.956 C 174.204 74.989, 170.972 79.191, 171.035 85.797 C 171.095 92.034, 173.406 94.750, 183.500 100.444 C 193.768 106.237, 196.570 111.604, 192.166 117.043 C 189.707 120.080, 181.075 120.894, 175.598 118.606 C 170.399 116.433, 169.816 116.557, 170.184 119.750 C 170.457 122.130, 171.173 122.675, 175.500 123.798 C 178.250 124.512, 182.613 124.874, 185.196 124.602 C 194.336 123.639, 199.133 119.173, 199.248 111.519 C 199.339 105.503, 196.344 101.829, 186.909 96.387 C 176.742 90.523, 174.447 87.211, 176.621 81.545 C 178.110 77.664, 188.265 75.629, 194.435 77.975 C 196.817 78.881, 197 78.747, 197 76.100 C 197 73.708, 196.498 73.150, 193.875 72.625 C 189.842 71.818, 184.191 71.962, 180.914 72.956 M 138.067 75.250 C 132.592 89.191, 120.003 122.688, 120.002 123.316 C 120.001 123.765, 121.190 123.990, 122.644 123.816 C 124.947 123.541, 125.616 122.561, 127.835 116.219 L 130.382 108.938 141.340 109.219 L 152.297 109.500 154.888 116.750 C 157.255 123.374, 157.717 124, 160.239 124 C 161.758 124, 163 123.835, 163 123.632 C 163 123.323, 146.612 80.050, 144.487 74.750 C 143.452 72.167, 139.146 72.503, 138.067 75.250 M 211 98.500 L 211 124 213.500 124 L 216 124 216 114 L 216 104 222.032 104 C 233.297 104, 240.015 98.861, 240.778 89.660 C 241.771 77.687, 236.062 73.060, 220.250 73.022 L 211 73 211 98.500 M 263 98.500 L 263 124 265.480 124 L 267.960 124 268.230 102.926 L 268.500 81.853 283 102.902 C 295.894 121.619, 297.805 123.954, 300.250 123.975 L 303 124 303 98.500 L 303 73 300.520 73 L 298.040 73 297.770 94.097 L 297.500 115.195 283 94.108 C 270.076 75.312, 268.201 73.020, 265.750 73.010 L 263 73 263 98.500 M 317 98.500 L 317 124 330 124 L 343 124 343 121.500 L 343 119 332.500 119 L 322 119 322 109.500 L 322 100 331 100 C 339.333 100, 340 99.852, 340 98 C 340 96.148, 339.333 96, 331 96 L 322 96 322 87.036 L 322 78.072 331.750 77.786 C 340.999 77.515, 341.516 77.384, 341.820 75.250 C 342.136 73.019, 342.033 73, 329.570 73 L 317 73 317 98.500 M 349 75.500 C 349 77.929, 349.200 78, 356 78 L 363 78 363 101 L 363 124 366 124 L 369 124 369 101 L 369 78 376 78 C 382.800 78, 383 77.929, 383 75.500 L 383 73 366 73 L 349 73 349 75.500 M 216 88.500 L 216 99 222.050 99 C 231.817 99, 236 95.514, 236 87.376 C 236 84.808, 235.204 83.050, 233.077 80.923 C 230.397 78.243, 229.565 78, 223.077 78 L 216 78 216 88.500 M 140.555 81.660 C 138.185 87.648, 133 102.376, 133 103.119 C 133 103.604, 136.825 104, 141.500 104 C 146.175 104, 150 103.862, 150 103.693 C 150 103.523, 148.039 98.083, 145.642 91.602 C 142.461 83.003, 141.086 80.317, 140.555 81.660 M 244.713 118.621 C 243.363 119.971, 244.004 122.932, 245.862 123.926 C 248.296 125.229, 251.354 123.088, 250.850 120.434 C 250.479 118.481, 246.135 117.198, 244.713 118.621 M 169.500 153.564 C 168.400 153.815, 165.025 154.495, 162 155.076 C 152.607 156.880, 140.900 161.050, 131 166.119 C 74.387 195.103, 51.731 267.761, 81.044 326.328 C 97.335 358.876, 128.137 381.571, 165.500 388.552 C 178.501 390.982, 200.975 390.130, 214 386.714 C 232.157 381.953, 250.330 372.363, 263.500 360.593 L 268.500 356.125 263.906 351.482 L 259.312 346.839 253.081 352.273 C 241.240 362.600, 224.863 370.814, 208.500 374.633 C 196.647 377.399, 173.614 377.192, 161.693 374.212 C 128.496 365.913, 100.911 341.802, 89.324 310.955 C 83.911 296.543, 82.695 289.384, 82.623 271.500 C 82.540 250.771, 85.024 239.027, 92.776 223.500 C 118.310 172.362, 180.761 151.314, 231.500 176.745 C 239.856 180.933, 251.479 188.803, 255.487 192.987 C 257.075 194.644, 258.741 196, 259.190 196 C 260.010 196, 267.242 188.427, 267.797 186.987 C 268.237 185.847, 252.544 173.555, 244.684 168.883 C 235.794 163.600, 225.762 159.494, 214 156.325 C 206.013 154.174, 201.873 153.714, 188 153.437 C 178.925 153.257, 170.600 153.314, 169.500 153.564 M 374.402 217.486 C 365.303 219.465, 358.249 223.507, 351 230.895 C 339.626 242.487, 334.681 256.097, 334.792 275.500 C 334.963 305.342, 347.696 324.595, 371.265 330.651 C 384.046 333.935, 405.351 330.672, 417.458 323.577 L 422 320.916 422 313.860 L 422 306.804 418.750 308.973 C 411.409 313.872, 401.291 317.997, 393.769 319.159 C 375.516 321.977, 361.016 314.875, 353.945 299.651 C 351.447 294.272, 349.030 284.043, 349.008 278.750 C 349 277.112, 351.576 277, 389.150 277 L 429.300 277 428.678 266.250 C 427.952 253.683, 426.025 245.756, 421.731 237.669 C 415.798 226.495, 406.086 219.400, 393.566 217.093 C 386.139 215.725, 382.117 215.807, 374.402 217.486 M 302.456 218.594 C 296.559 220.687, 289.452 227.563, 285.500 235 L 282.045 241.500 282.023 230.250 L 282 219 274.992 219 L 267.983 219 268.242 274.250 L 268.500 329.500 275.150 329.793 L 281.801 330.087 282.271 296.293 C 282.764 260.844, 283.097 257.939, 287.954 246.606 C 290.475 240.725, 296.541 234.124, 301.500 231.866 C 306.339 229.662, 314.788 229.467, 319.532 231.449 L 323 232.898 323 225.566 C 323 218.807, 322.824 218.186, 320.750 217.630 C 316.806 216.573, 306.639 217.109, 302.456 218.594 M 370.500 231.785 C 367.200 233.381, 362.762 236.615, 360.638 238.970 C 356.144 243.955, 351.365 253.665, 350.411 259.750 L 349.744 264 382.015 264 L 414.285 264 413.665 258.070 C 412.429 246.246, 407.213 236.967, 399.143 232.238 C 395.317 229.996, 393.169 229.520, 385.549 229.229 C 377.231 228.910, 376.015 229.117, 370.500 231.785 M 175.166 232.481 C 163.329 235.149, 154.123 242.926, 149.867 253.853 C 146.524 262.435, 146.074 278.594, 148.918 287.957 C 153.448 302.870, 165.310 311.955, 181.353 312.797 C 198.619 313.703, 211.129 306.696, 217.641 292.472 C 223.553 279.560, 223.253 261.256, 216.926 248.855 C 213.865 242.854, 206.748 236.424, 200.640 234.138 C 193.313 231.397, 182.964 230.724, 175.166 232.481" stroke="none" fill="#f9f9fa" fill-rule="evenodd"/><path d="M -0 238.002 L -0 476.004 250.250 475.752 L 500.500 475.500 500.752 237.750 L 501.004 0 250.502 0 L 0 0 -0 238.002 M 0.492 238.500 C 0.492 369.400, 0.608 423.099, 0.750 357.830 C 0.892 292.562, 0.892 185.462, 0.750 119.830 C 0.608 54.199, 0.492 107.600, 0.492 238.500 M 180.914 72.956 C 174.204 74.989, 170.972 79.191, 171.035 85.797 C 171.095 92.034, 173.406 94.750, 183.500 100.444 C 193.768 106.237, 196.570 111.604, 192.166 117.043 C 189.707 120.080, 181.075 120.894, 175.598 118.606 C 170.399 116.433, 169.816 116.557, 170.184 119.750 C 170.457 122.130, 171.173 122.675, 175.500 123.798 C 178.250 124.512, 182.613 124.874, 185.196 124.602 C 194.336 123.639, 199.133 119.173, 199.248 111.519 C 199.339 105.503, 196.344 101.829, 186.909 96.387 C 176.742 90.523, 174.447 87.211, 176.621 81.545 C 178.110 77.664, 188.265 75.629, 194.435 77.975 C 196.817 78.881, 197 78.747, 197 76.100 C 197 73.708, 196.498 73.150, 193.875 72.625 C 189.842 71.818, 184.191 71.962, 180.914 72.956 M 138.067 75.250 C 132.592 89.191, 120.003 122.688, 120.002 123.316 C 120.001 123.765, 121.190 123.990, 122.644 123.816 C 124.947 123.541, 125.616 122.561, 127.835 116.219 L 130.382 108.938 141.340 109.219 L 152.297 109.500 154.888 116.750 C 157.255 123.374, 157.717 124, 160.239 124 C 161.758 124, 163 123.835, 163 123.632 C 163 123.323, 146.612 80.050, 144.487 74.750 C 143.452 72.167, 139.146 72.503, 138.067 75.250 M 211 98.500 L 211 124 213.500 124 L 216 124 216 114 L 216 104 222.032 104 C 233.297 104, 240.015 98.861, 240.778 89.660 C 241.771 77.687, 236.062 73.060, 220.250 73.022 L 211 73 211 98.500 M 263 98.500 L 263 124 265.480 124 L 267.960 124 268.230 102.926 L 268.500 81.853 283 102.902 C 295.894 121.619, 297.805 123.954, 300.250 123.975 L 303 124 303 98.500 L 303 73 300.520 73 L 298.040 73 297.770 94.097 L 297.500 115.195 283 94.108 C 270.076 75.312, 268.201 73.020, 265.750 73.010 L 263 73 263 98.500 M 317 98.500 L 317 124 330 124 L 343 124 343 121.500 L 343 119 332.500 119 L 322 119 322 109.500 L 322 100 331 100 C 339.333 100, 340 99.852, 340 98 C 340 96.148, 339.333 96, 331 96 L 322 96 322 87.036 L 322 78.072 331.750 77.786 C 340.999 77.515, 341.516 77.384, 341.820 75.250 C 342.136 73.019, 342.033 73, 329.570 73 L 317 73 317 98.500 M 349 75.500 C 349 77.929, 349.200 78, 356 78 L 363 78 363 101 L 363 124 366 124 L 369 124 369 101 L 369 78 376 78 C 382.800 78, 383 77.929, 383 75.500 L 383 73 366 73 L 349 73 349 75.500 M 216 88.500 L 216 99 222.050 99 C 231.817 99, 236 95.514, 236 87.376 C 236 84.808, 235.204 83.050, 233.077 80.923 C 230.397 78.243, 229.565 78, 223.077 78 L 216 78 216 88.500 M 140.555 81.660 C 138.185 87.648, 133 102.376, 133 103.119 C 133 103.604, 136.825 104, 141.500 104 C 146.175 104, 150 103.862, 150 103.693 C 150 103.523, 148.039 98.083, 145.642 91.602 C 142.461 83.003, 141.086 80.317, 140.555 81.660 M 244.713 118.621 C 243.363 119.971, 244.004 122.932, 245.862 123.926 C 248.296 125.229, 251.354 123.088, 250.850 120.434 C 250.479 118.481, 246.135 117.198, 244.713 118.621 M 169.500 153.564 C 168.400 153.815, 165.025 154.495, 162 155.076 C 152.607 156.880, 140.900 161.050, 131 166.119 C 74.387 195.103, 51.731 267.761, 81.044 326.328 C 97.335 358.876, 128.137 381.571, 165.500 388.552 C 178.501 390.982, 200.975 390.130, 214 386.714 C 232.157 381.953, 250.330 372.363, 263.500 360.593 L 268.500 356.125 263.906 351.482 L 259.312 346.839 253.081 352.273 C 241.240 362.600, 224.863 370.814, 208.500 374.633 C 196.647 377.399, 173.614 377.192, 161.693 374.212 C 128.496 365.913, 100.911 341.802, 89.324 310.955 C 83.911 296.543, 82.695 289.384, 82.623 271.500 C 82.540 250.771, 85.024 239.027, 92.776 223.500 C 118.310 172.362, 180.761 151.314, 231.500 176.745 C 239.856 180.933, 251.479 188.803, 255.487 192.987 C 257.075 194.644, 258.741 196, 259.190 196 C 260.010 196, 267.242 188.427, 267.797 186.987 C 268.237 185.847, 252.544 173.555, 244.684 168.883 C 235.794 163.600, 225.762 159.494, 214 156.325 C 206.013 154.174, 201.873 153.714, 188 153.437 C 178.925 153.257, 170.600 153.314, 169.500 153.564 M 374.402 217.486 C 365.303 219.465, 358.249 223.507, 351 230.895 C 339.626 242.487, 334.681 256.097, 334.792 275.500 C 334.963 305.342, 347.696 324.595, 371.265 330.651 C 384.046 333.935, 405.351 330.672, 417.458 323.577 L 422 320.916 422 313.860 L 422 306.804 418.750 308.973 C 411.409 313.872, 401.291 317.997, 393.769 319.159 C 375.516 321.977, 361.016 314.875, 353.945 299.651 C 351.447 294.272, 349.030 284.043, 349.008 278.750 C 349 277.112, 351.576 277, 389.150 277 L 429.300 277 428.678 266.250 C 427.952 253.683, 426.025 245.756, 421.731 237.669 C 415.798 226.495, 406.086 219.400, 393.566 217.093 C 386.139 215.725, 382.117 215.807, 374.402 217.486 M 302.456 218.594 C 296.559 220.687, 289.452 227.563, 285.500 235 L 282.045 241.500 282.023 230.250 L 282 219 274.992 219 L 267.983 219 268.242 274.250 L 268.500 329.500 275.150 329.793 L 281.801 330.087 282.271 296.293 C 282.764 260.844, 283.097 257.939, 287.954 246.606 C 290.475 240.725, 296.541 234.124, 301.500 231.866 C 306.339 229.662, 314.788 229.467, 319.532 231.449 L 323 232.898 323 225.566 C 323 218.807, 322.824 218.186, 320.750 217.630 C 316.806 216.573, 306.639 217.109, 302.456 218.594 M 370.500 231.785 C 367.200 233.381, 362.762 236.615, 360.638 238.970 C 356.144 243.955, 351.365 253.665, 350.411 259.750 L 349.744 264 382.015 264 L 414.285 264 413.665 258.070 C 412.429 246.246, 407.213 236.967, 399.143 232.238 C 395.317 229.996, 393.169 229.520, 385.549 229.229 C 377.231 228.910, 376.015 229.117, 370.500 231.785 M 175.166 232.481 C 163.329 235.149, 154.123 242.926, 149.867 253.853 C 146.524 262.435, 146.074 278.594, 148.918 287.957 C 153.448 302.870, 165.310 311.955, 181.353 312.797 C 198.619 313.703, 211.129 306.696, 217.641 292.472 C 223.553 279.560, 223.253 261.256, 216.926 248.855 C 213.865 242.854, 206.748 236.424, 200.640 234.138 C 193.313 231.397, 182.964 230.724, 175.166 232.481" stroke="none" fill="#0c2c64" fill-rule="evenodd"/></svg>