<?xml version="1.0" encoding="UTF-8"?>
<!DOCTYPE svg PUBLIC "-//W3C//DTD SVG 1.1//EN" "http://www.w3.org/Graphics/SVG/1.1/DTD/svg11.dtd">
<svg xmlns="http://www.w3.org/2000/svg" version="1.1" width="196px" height="195px" style="shape-rendering:geometricPrecision; text-rendering:geometricPrecision; image-rendering:optimizeQuality; fill-rule:evenodd; clip-rule:evenodd" xmlns:xlink="http://www.w3.org/1999/xlink">
<g><path style="opacity:1" fill="#68217a" d="M -0.5,-0.5 C 64.8333,-0.5 130.167,-0.5 195.5,-0.5C 195.5,64.5 195.5,129.5 195.5,194.5C 130.167,194.5 64.8333,194.5 -0.5,194.5C -0.5,129.5 -0.5,64.5 -0.5,-0.5 Z"/></g>
<g><path style="opacity:1" fill="#f7f3f8" d="M 78.5,68.5 C 80.1667,68.5 81.8333,68.5 83.5,68.5C 83.5,87.8333 83.5,107.167 83.5,126.5C 81.8333,126.5 80.1667,126.5 78.5,126.5C 67.2664,111.046 56.2664,95.3792 45.5,79.5C 45.2172,78.7109 44.7172,78.0442 44,77.5C 43.5001,93.8299 43.3334,110.163 43.5,126.5C 41.7768,127.807 39.9435,127.807 38,126.5C 37.3333,107.167 37.3333,87.8333 38,68.5C 40.3333,67.1667 42.6667,67.1667 45,68.5C 55.6096,84.7749 66.6096,100.775 78,116.5C 78.4999,100.503 78.6666,84.5035 78.5,68.5 Z"/></g>
<g><path style="opacity:1" fill="#d2bed8" d="M 78.5,68.5 C 80.2646,67.5386 82.2646,67.2053 84.5,67.5C 84.5,87.5 84.5,107.5 84.5,127.5C 82.2646,127.795 80.2646,127.461 78.5,126.5C 80.1667,126.5 81.8333,126.5 83.5,126.5C 83.5,107.167 83.5,87.8333 83.5,68.5C 81.8333,68.5 80.1667,68.5 78.5,68.5 Z"/></g>
<g><path style="opacity:1" fill="#f4eff6" d="M 100.5,67.5 C 110.167,67.5 119.833,67.5 129.5,67.5C 129.5,69.5 129.5,71.5 129.5,73.5C 121.833,73.5 114.167,73.5 106.5,73.5C 106.5,80.5 106.5,87.5 106.5,94.5C 113.5,94.5 120.5,94.5 127.5,94.5C 127.5,96.1667 127.5,97.8333 127.5,99.5C 120.5,99.5 113.5,99.5 106.5,99.5C 106.5,106.833 106.5,114.167 106.5,121.5C 114.5,121.5 122.5,121.5 130.5,121.5C 130.5,123.5 130.5,125.5 130.5,127.5C 120.5,127.5 110.5,127.5 100.5,127.5C 100.5,107.5 100.5,87.5 100.5,67.5 Z"/></g>
<g><path style="opacity:1" fill="#fefefe" d="M 176.5,68.5 C 176.5,69.8333 176.5,71.1667 176.5,72.5C 170.974,72.1786 165.64,72.5119 160.5,73.5C 159.503,90.9921 159.17,108.659 159.5,126.5C 158.167,126.5 156.833,126.5 155.5,126.5C 155.83,108.659 155.497,90.9921 154.5,73.5C 149.36,72.5119 144.026,72.1786 138.5,72.5C 138.5,71.1667 138.5,69.8333 138.5,68.5C 151.167,68.5 163.833,68.5 176.5,68.5 Z"/></g>
<g><path style="opacity:1" fill="#c9b0d0" d="M 177.5,68.5 C 177.167,68.5 176.833,68.5 176.5,68.5C 163.833,68.5 151.167,68.5 138.5,68.5C 138.5,69.8333 138.5,71.1667 138.5,72.5C 144.026,72.1786 149.36,72.5119 154.5,73.5C 148.833,73.5 143.167,73.5 137.5,73.5C 137.5,71.5 137.5,69.5 137.5,67.5C 151.01,67.1711 164.344,67.5044 177.5,68.5 Z"/></g>
<g><path style="opacity:1" fill="#d8c6dd" d="M 176.5,68.5 C 176.833,68.5 177.167,68.5 177.5,68.5C 177.5,70.1667 177.5,71.8333 177.5,73.5C 171.833,73.5 166.167,73.5 160.5,73.5C 165.64,72.5119 170.974,72.1786 176.5,72.5C 176.5,71.1667 176.5,69.8333 176.5,68.5 Z"/></g>
<g><path style="opacity:1" fill="#d7c5dc" d="M 154.5,73.5 C 155.497,90.9921 155.83,108.659 155.5,126.5C 156.833,126.5 158.167,126.5 159.5,126.5C 159.17,108.659 159.503,90.9921 160.5,73.5C 160.5,91.5 160.5,109.5 160.5,127.5C 158.5,127.5 156.5,127.5 154.5,127.5C 154.5,109.5 154.5,91.5 154.5,73.5 Z"/></g>
<g><path style="opacity:1" fill="#8e599b" d="M 45.5,79.5 C 44.8333,95.1667 44.1667,110.833 43.5,126.5C 43.3334,110.163 43.5001,93.8299 44,77.5C 44.7172,78.0442 45.2172,78.7109 45.5,79.5 Z"/></g>
<g><path style="opacity:1" fill="#f5f0f6" d="M 18.5,119.5 C 24.0204,120.044 25.3538,122.544 22.5,127C 18.7983,128.393 16.7983,127.226 16.5,123.5C 16.8029,121.886 17.4695,120.552 18.5,119.5 Z"/></g>
</svg>
