<?xml version="1.0" encoding="UTF-8"?>
<!DOCTYPE svg PUBLIC "-//W3C//DTD SVG 1.1//EN" "http://www.w3.org/Graphics/SVG/1.1/DTD/svg11.dtd">
<svg xmlns="http://www.w3.org/2000/svg" version="1.1" width="582px" height="591px" style="shape-rendering:geometricPrecision; text-rendering:geometricPrecision; image-rendering:optimizeQuality; fill-rule:evenodd; clip-rule:evenodd" xmlns:xlink="http://www.w3.org/1999/xlink">
<g><path style="opacity:1" fill="#68217a" d="M -0.5,-0.5 C 193.5,-0.5 387.5,-0.5 581.5,-0.5C 581.5,196.5 581.5,393.5 581.5,590.5C 387.5,590.5 193.5,590.5 -0.5,590.5C -0.5,393.5 -0.5,196.5 -0.5,-0.5 Z"/></g>
<g><path style="opacity:1" fill="#f6f2f7" d="M 448.5,136.5 C 449.5,136.5 450.5,136.5 451.5,136.5C 451.334,143.841 451.5,151.174 452,158.5C 455.536,155.299 458.703,151.799 461.5,148C 462.944,147.219 464.277,147.386 465.5,148.5C 462.167,152.167 458.833,155.833 455.5,159.5C 459.167,163.5 462.833,167.5 466.5,171.5C 465.277,172.614 463.944,172.781 462.5,172C 459,168.5 455.5,165 452,161.5C 451.501,165.152 451.335,168.818 451.5,172.5C 450.5,172.5 449.5,172.5 448.5,172.5C 448.5,160.5 448.5,148.5 448.5,136.5 Z"/></g>
<g><path style="opacity:1" fill="#faf7fa" d="M 120.5,156.5 C 119.515,160.634 119.182,164.968 119.5,169.5C 124.167,169.5 128.833,169.5 133.5,169.5C 128.265,171.45 122.598,172.117 116.5,171.5C 116.5,160.5 116.5,149.5 116.5,138.5C 122.167,138.5 127.833,138.5 133.5,138.5C 133.5,139.5 133.5,140.5 133.5,141.5C 129.167,141.5 124.833,141.5 120.5,141.5C 120.5,145.5 120.5,149.5 120.5,153.5C 124.5,153.5 128.5,153.5 132.5,153.5C 132.5,154.5 132.5,155.5 132.5,156.5C 128.5,156.5 124.5,156.5 120.5,156.5 Z"/></g>
<g><path style="opacity:1" fill="#f2ebf3" d="M 182.5,137.5 C 185.956,138.536 186.29,140.203 183.5,142.5C 181.296,141.218 180.962,139.551 182.5,137.5 Z"/></g>
<g><path style="opacity:1" fill="#d8c6dd" d="M 244.5,138.5 C 244.168,149.52 244.501,160.52 245.5,171.5C 246.167,166.683 246.834,162.017 247.5,157.5C 247.5,162.5 247.5,167.5 247.5,172.5C 246.167,172.5 244.833,172.5 243.5,172.5C 243.172,160.988 243.505,149.654 244.5,138.5 Z"/></g>
<g><path style="opacity:1" fill="#f2ecf3" d="M 244.5,138.5 C 249.833,138.5 255.167,138.5 260.5,138.5C 260.5,139.5 260.5,140.5 260.5,141.5C 256.167,141.5 251.833,141.5 247.5,141.5C 247.5,145.5 247.5,149.5 247.5,153.5C 251.5,153.5 255.5,153.5 259.5,153.5C 259.5,154.833 259.5,156.167 259.5,157.5C 255.5,157.5 251.5,157.5 247.5,157.5C 246.834,162.017 246.167,166.683 245.5,171.5C 244.501,160.52 244.168,149.52 244.5,138.5 Z"/></g>
<g><path style="opacity:1" fill="#e8dcea" d="M 169.5,141.5 C 170.167,143.5 170.833,145.5 171.5,147.5C 173.977,147.051 175.977,147.717 177.5,149.5C 175.977,151.283 173.977,151.949 171.5,151.5C 171.5,157.5 171.5,163.5 171.5,169.5C 173.167,169.5 174.833,169.5 176.5,169.5C 176.5,170.5 176.5,171.5 176.5,172.5C 173.03,173.125 170.196,172.125 168,169.5C 167.501,163.509 167.334,157.509 167.5,151.5C 166.167,151.5 164.833,151.5 163.5,151.5C 163.5,150.167 163.5,148.833 163.5,147.5C 164.833,147.5 166.167,147.5 167.5,147.5C 167.025,144.918 167.692,142.918 169.5,141.5 Z"/></g>
<g><path style="opacity:1" fill="#ad85b6" d="M 169.5,141.5 C 169.56,140.957 169.893,140.624 170.5,140.5C 171.474,142.743 171.808,145.076 171.5,147.5C 170.833,145.5 170.167,143.5 169.5,141.5 Z"/></g>
<g><path style="opacity:1" fill="#f6f2f7" d="M 202.5,150.5 C 200.5,150.5 198.5,150.5 196.5,150.5C 196.178,156.358 196.511,162.025 197.5,167.5C 198.552,169.256 200.219,169.923 202.5,169.5C 202.5,170.5 202.5,171.5 202.5,172.5C 199.03,173.125 196.196,172.125 194,169.5C 193.501,163.509 193.334,157.509 193.5,151.5C 192.167,151.5 190.833,151.5 189.5,151.5C 189.5,150.167 189.5,148.833 189.5,147.5C 190.833,147.5 192.167,147.5 193.5,147.5C 193.5,145.5 193.5,143.5 193.5,141.5C 194.5,141.5 195.5,141.5 196.5,141.5C 196.5,143.833 196.5,146.167 196.5,148.5C 198.924,148.192 201.257,148.526 203.5,149.5C 203.376,150.107 203.043,150.44 202.5,150.5 Z"/></g>
<g><path style="opacity:1" fill="#f8f5f9" d="M 140.5,147.5 C 141.5,147.5 142.5,147.5 143.5,147.5C 143.351,148.552 143.517,149.552 144,150.5C 148.667,146.5 153.333,146.5 158,150.5C 159.429,157.719 159.929,165.053 159.5,172.5C 158.5,172.5 157.5,172.5 156.5,172.5C 156.666,166.491 156.499,160.491 156,154.5C 152.181,149.231 148.181,149.231 144,154.5C 143.501,160.491 143.334,166.491 143.5,172.5C 142.5,172.5 141.5,172.5 140.5,172.5C 140.5,164.167 140.5,155.833 140.5,147.5 Z"/></g>
<g><path style="opacity:1" fill="#f3edf4" d="M 286.5,147.5 C 290.839,146.846 294.673,147.846 298,150.5C 299.429,157.719 299.929,165.053 299.5,172.5C 298.5,172.5 297.5,172.5 296.5,172.5C 296.633,167.728 295.3,167.562 292.5,172C 284.333,173.822 280.5,170.656 281,162.5C 284.261,158.742 288.428,156.908 293.5,157C 296.033,155.084 296.033,153.084 293.5,151C 290.208,150.064 287.208,150.564 284.5,152.5C 283.417,151.635 283.251,150.635 284,149.5C 284.995,148.934 285.828,148.267 286.5,147.5 Z"/></g>
<g><path style="opacity:1" fill="#f8f5f9" d="M 306.5,147.5 C 307.5,147.5 308.5,147.5 309.5,147.5C 309.351,148.552 309.517,149.552 310,150.5C 314.954,146.323 319.62,146.657 324,151.5C 329.076,146.244 334.076,146.244 339,151.5C 339.5,158.492 339.666,165.492 339.5,172.5C 338.5,172.5 337.5,172.5 336.5,172.5C 336.666,166.158 336.5,159.825 336,153.5C 331.548,149.122 327.881,149.789 325,155.5C 324.501,161.157 324.334,166.824 324.5,172.5C 323.5,172.5 322.5,172.5 321.5,172.5C 321.666,166.158 321.5,159.825 321,153.5C 317.021,149.356 313.355,149.69 310,154.5C 309.501,160.491 309.334,166.491 309.5,172.5C 308.5,172.5 307.5,172.5 306.5,172.5C 306.5,164.167 306.5,155.833 306.5,147.5 Z"/></g>
<g><path style="opacity:1" fill="#f6f2f7" d="M 352.5,147.5 C 361.833,146.833 366.167,151.167 365.5,160.5C 359.833,160.5 354.167,160.5 348.5,160.5C 350.004,169.69 355.004,172.023 363.5,167.5C 364.731,168.651 364.731,169.817 363.5,171C 349.091,174.929 343.257,169.429 346,154.5C 347.694,151.642 349.861,149.309 352.5,147.5 Z"/></g>
<g><path style="opacity:1" fill="#f2ecf4" d="M 410.5,147.5 C 423.984,147.115 428.817,153.448 425,166.5C 423.833,169 422,170.833 419.5,172C 405.518,173.666 400.351,167.499 404,153.5C 406.063,151.266 408.229,149.266 410.5,147.5 Z"/></g>
<g><path style="opacity:1" fill="#d9c6dd" d="M 181.5,148.5 C 181.833,148.5 182.167,148.5 182.5,148.5C 181.868,156.573 182.535,164.24 184.5,171.5C 184.5,171.833 184.5,172.167 184.5,172.5C 183.5,172.5 182.5,172.5 181.5,172.5C 181.5,164.5 181.5,156.5 181.5,148.5 Z"/></g>
<g><path style="opacity:1" fill="#fefffe" d="M 182.5,148.5 C 184.465,155.76 185.132,163.427 184.5,171.5C 182.535,164.24 181.868,156.573 182.5,148.5 Z"/></g>
<g><path style="opacity:1" fill="#b18cbb" d="M 181.5,148.5 C 182.568,147.566 183.901,147.232 185.5,147.5C 185.826,156.017 185.493,164.35 184.5,172.5C 184.5,172.167 184.5,171.833 184.5,171.5C 185.132,163.427 184.465,155.76 182.5,148.5C 182.167,148.5 181.833,148.5 181.5,148.5 Z"/></g>
<g><path style="opacity:1" fill="#f0e9f1" d="M 204.5,147.5 C 205.822,147.33 206.989,147.663 208,148.5C 210.333,154.833 212.667,161.167 215,167.5C 217.805,160.914 220.305,154.247 222.5,147.5C 223.978,147.238 225.311,147.571 226.5,148.5C 222.39,157.719 218.557,167.053 215,176.5C 213.419,181.707 209.919,184.041 204.5,183.5C 204.5,182.5 204.5,181.5 204.5,180.5C 206.696,180.435 208.696,179.768 210.5,178.5C 211.217,176.172 212.217,174.005 213.5,172C 210.194,163.913 207.194,155.747 204.5,147.5 Z"/></g>
<g><path style="opacity:1" fill="#f3eef5" d="M 266.5,147.5 C 267.5,147.5 268.5,147.5 269.5,147.5C 269.343,148.873 269.51,150.207 270,151.5C 271.812,148.179 274.645,146.845 278.5,147.5C 278.5,148.5 278.5,149.5 278.5,150.5C 274.317,149.846 271.484,151.512 270,155.5C 269.501,161.157 269.334,166.824 269.5,172.5C 268.5,172.5 267.5,172.5 266.5,172.5C 266.5,164.167 266.5,155.833 266.5,147.5 Z"/></g>
<g><path style="opacity:1" fill="#efe7f1" d="M 368.5,147.5 C 369.822,147.33 370.989,147.663 372,148.5C 373.667,154.5 375.333,160.5 377,166.5C 379.544,160.703 381.377,154.703 382.5,148.5C 383.978,148.238 385.311,148.571 386.5,149.5C 388.034,154.983 389.867,160.316 392,165.5C 393.667,159.833 395.333,154.167 397,148.5C 398.183,147.269 399.349,147.269 400.5,148.5C 398.154,156.517 395.821,164.517 393.5,172.5C 392.167,172.5 390.833,172.5 389.5,172.5C 388.34,166.368 386.673,160.368 384.5,154.5C 382.349,160.096 380.349,165.762 378.5,171.5C 377.5,172.833 376.5,172.833 375.5,171.5C 372.757,163.605 370.423,155.605 368.5,147.5 Z"/></g>
<g><path style="opacity:1" fill="#f4eef5" d="M 432.5,147.5 C 433.5,147.5 434.5,147.5 435.5,147.5C 435.343,148.873 435.51,150.207 436,151.5C 437.812,148.179 440.645,146.845 444.5,147.5C 444.5,148.5 444.5,149.5 444.5,150.5C 440.317,149.846 437.484,151.512 436,155.5C 435.501,161.157 435.334,166.824 435.5,172.5C 434.5,172.5 433.5,172.5 432.5,172.5C 432.5,164.167 432.5,155.833 432.5,147.5 Z"/></g>
<g><path style="opacity:1" fill="#6c277d" d="M 361.5,154.5 C 361.5,155.5 361.5,156.5 361.5,157.5C 357.167,157.5 352.833,157.5 348.5,157.5C 349.627,151.866 352.96,149.699 358.5,151C 360.056,151.72 361.056,152.887 361.5,154.5 Z"/></g>
<g><path style="opacity:1" fill="#6a257c" d="M 410.5,150.5 C 421.211,150.057 425.045,155.057 422,165.5C 420.471,168.516 417.971,169.849 414.5,169.5C 411.675,169.881 409.509,168.881 408,166.5C 405.453,160.558 406.287,155.225 410.5,150.5 Z"/></g>
<g><path style="opacity:1" fill="#9969a5" d="M 202.5,150.5 C 201.081,151.451 199.415,151.784 197.5,151.5C 197.5,156.833 197.5,162.167 197.5,167.5C 196.511,162.025 196.178,156.358 196.5,150.5C 198.5,150.5 200.5,150.5 202.5,150.5 Z"/></g>
<g><path style="opacity:1" fill="#b28ebb" d="M 361.5,154.5 C 362.434,155.568 362.768,156.901 362.5,158.5C 357.637,158.819 352.97,158.486 348.5,157.5C 352.833,157.5 357.167,157.5 361.5,157.5C 361.5,156.5 361.5,155.5 361.5,154.5 Z"/></g>
<g><path style="opacity:1" fill="#702e81" d="M 293.5,159.5 C 294.5,159.5 295.5,159.5 296.5,159.5C 296.38,168.167 292.547,170.834 285,167.5C 284.333,165.833 284.333,164.167 285,162.5C 287.804,161.132 290.638,160.132 293.5,159.5 Z"/></g>
<g><path style="opacity:1" fill="#9b6ca7" d="M 120.5,156.5 C 120.5,160.5 120.5,164.5 120.5,168.5C 125.032,168.182 129.366,168.515 133.5,169.5C 128.833,169.5 124.167,169.5 119.5,169.5C 119.182,164.968 119.515,160.634 120.5,156.5 Z"/></g>
<g><path style="opacity:1" fill="#d4bfd9" d="M 133.5,169.5 C 134.404,170.209 134.737,171.209 134.5,172.5C 128.31,172.823 122.31,172.49 116.5,171.5C 122.598,172.117 128.265,171.45 133.5,169.5 Z"/></g>
<g><path style="opacity:1" fill="#fcfafc" d="M 212.5,206.5 C 249.435,203.987 281.102,215.487 307.5,241C 304.651,244.016 301.651,246.85 298.5,249.5C 261.074,216.558 219.741,210.725 174.5,232C 127.868,262.199 111.701,304.366 126,358.5C 140.539,399.04 169.039,422.874 211.5,430C 244.65,433.284 273.317,423.617 297.5,401C 300.776,402.237 303.609,404.403 306,407.5C 306.667,408.5 306.667,409.5 306,410.5C 273.812,439.924 236.312,449.757 193.5,440C 152.053,427.552 124.886,400.719 112,359.5C 99.7985,311.8 110.965,270.633 145.5,236C 164.763,219.083 187.096,209.25 212.5,206.5 Z"/></g>
<g><path style="opacity:1" fill="#fbf9fb" d="M 320.5,272.5 C 320.334,280.174 320.5,287.841 321,295.5C 321.717,294.956 322.217,294.289 322.5,293.5C 329.19,274.823 342.19,267.656 361.5,272C 362.802,276.782 362.802,281.615 361.5,286.5C 346.858,279.744 335.691,283.41 328,297.5C 325.201,303.232 323.201,309.232 322,315.5C 321.667,337.833 321.333,360.167 321,382.5C 316.599,383.467 312.099,383.8 307.5,383.5C 307.5,346.5 307.5,309.5 307.5,272.5C 311.833,272.5 316.167,272.5 320.5,272.5 Z"/></g>
<g><path style="opacity:1" fill="#fcfafc" d="M 413.5,270.5 C 443.312,267.153 461.145,280.153 467,309.5C 467.5,316.492 467.666,323.492 467.5,330.5C 441.167,330.5 414.833,330.5 388.5,330.5C 387.645,346.619 393.645,359.453 406.5,369C 425.904,376.388 443.738,373.554 460,360.5C 460.667,365.167 460.667,369.833 460,374.5C 444.184,384.619 427.017,387.786 408.5,384C 389.905,377.732 378.738,364.899 375,345.5C 369.509,321.29 375.009,300.123 391.5,282C 397.944,276.28 405.277,272.446 413.5,270.5 Z"/></g>
<g><path style="opacity:1" fill="#b38fbc" d="M 320.5,272.5 C 321.167,279.5 321.833,286.5 322.5,293.5C 322.217,294.289 321.717,294.956 321,295.5C 320.5,287.841 320.334,280.174 320.5,272.5 Z"/></g>
<g><path style="opacity:1" fill="#69227a" d="M 452.5,312.5 C 452.5,314.167 452.5,315.833 452.5,317.5C 431.167,317.5 409.833,317.5 388.5,317.5C 394.008,286.918 411.341,276.752 440.5,287C 448.403,293.64 452.403,302.14 452.5,312.5 Z"/></g>
<g><path style="opacity:1" fill="#40caf3" d="M 215.5,284.5 C 244.855,282.502 260.188,296.169 261.5,325.5C 259.48,356.356 243.147,369.856 212.5,366C 197.26,361.425 188.426,351.258 186,335.5C 181.59,309.84 191.423,292.84 215.5,284.5 Z"/></g>
<g><path style="opacity:1" fill="#b28ebb" d="M 452.5,312.5 C 453.461,314.265 453.795,316.265 453.5,318.5C 431.66,318.831 409.994,318.497 388.5,317.5C 409.833,317.5 431.167,317.5 452.5,317.5C 452.5,315.833 452.5,314.167 452.5,312.5 Z"/></g>
</svg>
