<svg xmlns="http://www.w3.org/2000/svg" width="512" height="512" viewBox="0 0 512 512" version="1.1"><path d="M 211.558 22.492 C 209.390 23.265, 206.563 24.707, 205.277 25.698 C 203.991 26.689, 161.116 74.003, 109.999 130.840 C 42.173 206.256, 16.356 235.618, 14.455 239.502 C 9.528 249.572, 9.528 262.428, 14.455 272.498 C 18.018 279.780, 203.420 485.983, 208.820 488.669 C 213.643 491.069, 224.243 491.085, 228.715 488.699 C 231.861 487.022, 255.500 461.710, 255.500 460.020 C 255.500 459.549, 240.875 442.936, 223 423.101 C 205.125 403.267, 189.724 385.342, 188.776 383.269 C 186.301 377.857, 186.501 370.225, 189.250 365.207 C 190.488 362.947, 209.833 340.753, 232.240 315.886 C 254.647 291.019, 273.884 268.805, 274.990 266.521 C 277.726 260.868, 277.718 251.114, 274.971 245.441 C 273.834 243.091, 254.915 221.318, 231.903 195.875 C 209.330 170.919, 190.003 148.700, 188.953 146.500 C 186.430 141.213, 186.420 133.058, 188.931 128.135 C 189.993 126.054, 205.551 108.046, 223.503 88.119 L 256.144 51.887 249.338 44.194 C 235.281 28.305, 229.846 23.425, 224.807 22.169 C 218.860 20.687, 216.460 20.746, 211.558 22.492" stroke="none" fill="#862a7e" fill-rule="evenodd"/><path d="M 285.820 22.531 C 281.951 23.762, 279.407 25.882, 271.148 34.760 C 265.653 40.667, 260.109 46.841, 258.828 48.479 C 257.548 50.118, 241.728 67.866, 223.673 87.920 C 205.618 107.974, 189.981 126.078, 188.923 128.151 C 186.420 133.057, 186.433 141.221, 188.953 146.500 C 190.003 148.700, 209.330 170.919, 231.903 195.875 C 254.915 221.318, 273.834 243.091, 274.971 245.441 C 277.718 251.114, 277.726 260.868, 274.990 266.521 C 273.884 268.805, 254.647 291.019, 232.240 315.886 C 209.833 340.753, 190.487 362.947, 189.250 365.207 C 186.444 370.330, 186.303 377.912, 188.910 383.500 C 189.937 385.700, 204.400 402.570, 221.050 420.988 C 237.700 439.407, 253.556 457.182, 256.285 460.488 C 267.547 474.134, 280.549 487.345, 284.470 489.125 C 286.686 490.132, 290.586 490.966, 293.136 490.978 C 303.260 491.026, 300.218 494.098, 401.493 381.568 C 471.984 303.245, 495.704 276.265, 497.765 272.068 C 500.218 267.075, 500.500 265.416, 500.500 256 C 500.500 246.584, 500.218 244.925, 497.765 239.932 C 495.703 235.733, 472.017 208.805, 401.449 130.432 C 348.060 71.137, 306.285 25.559, 304.184 24.308 C 299.261 21.380, 291.729 20.651, 285.820 22.531" stroke="none" fill="#e083c3" fill-rule="evenodd"/></svg>