<svg xmlns="http://www.w3.org/2000/svg" width="2048" height="2048" viewBox="0 0 2048 2048" version="1.1"><path d="M 1605.821 731.250 C 1182.725 1204.203, 625.132 1827.703, 621.196 1832.257 C 619.748 1833.933, 636.028 1834.002, 972.589 1833.757 L 1325.500 1833.500 1332.745 1830.811 C 1342.497 1827.192, 1351.214 1822.444, 1358.090 1817.006 C 1361.224 1814.528, 1413.891 1756.475, 1475.128 1688 C 1536.364 1619.525, 1684.286 1454.202, 1803.842 1320.616 C 1923.398 1187.031, 2022.778 1075.689, 2024.685 1073.190 C 2046.157 1045.060, 2045.303 1000.280, 2022.760 972.192 C 2016.746 964.697, 1707.637 619.159, 1706.869 619.072 C 1706.522 619.032, 1661.051 669.513, 1605.821 731.250" stroke="none" fill="#6cbafb" fill-rule="evenodd"/><path d="M 67.644 214.599 C 36.525 220.221, 11.069 243.861, 1.603 275.932 C 0.397 280.018, -0 285.750, -0 299.076 C -0 314.282, 0.299 317.760, 2.115 323.645 C 4.650 331.864, 9.044 340.854, 13.536 347.017 C 15.347 349.502, 152.094 502.721, 317.419 687.504 C 482.744 872.286, 617.895 1023.805, 617.755 1024.211 C 617.615 1024.617, 483.113 1175.149, 318.861 1358.725 C 154.610 1542.301, 18.365 1694.750, 16.094 1697.500 C 10.903 1703.788, 4.831 1715.439, 2.100 1724.355 C 0.304 1730.219, 0 1733.773, 0 1748.924 C 0 1762.250, 0.397 1767.982, 1.603 1772.068 C 11.192 1804.554, 36.629 1827.914, 68.461 1833.465 C 76.319 1834.836, 143.563 1834.973, 696.381 1834.752 C 1239.076 1834.535, 1272.568 1834.442, 967.700 1834.002 L 619.899 1833.500 808.620 1622.500 C 1075.114 1324.545, 1495.954 854.057, 1609.623 727 C 1662.518 667.875, 1705.897 619.113, 1706.021 618.640 C 1706.183 618.022, 1404.923 280.369, 1377.406 250.327 C 1375.653 248.414, 1372.033 244.367, 1369.360 241.333 C 1357.045 227.356, 1338.011 217.040, 1319 214.041 C 1314.606 213.347, 1112.101 213.042, 694 213.097 C 164.490 213.168, 74.370 213.384, 67.644 214.599" stroke="none" fill="#2e84f3" fill-rule="evenodd"/></svg>