<?xml version="1.0" standalone="no"?>
<!DOCTYPE svg PUBLIC "-//W3C//DTD SVG 20010904//EN"
 "http://www.w3.org/TR/2001/REC-SVG-20010904/DTD/svg10.dtd">
<svg version="1.0" xmlns="http://www.w3.org/2000/svg"
 width="1024.000000pt" height="1024.000000pt" viewBox="0 0 1024.000000 1024.000000"
 preserveAspectRatio="xMidYMid meet">

<g transform="translate(0.000000,1024.000000) scale(0.100000,-0.100000)"
fill="#000000" stroke="none">
<path d="M1341 7153 c-21 -43 -69 -136 -105 -206 -36 -71 -66 -134 -66 -140 0
-9 410 -12 1638 -13 2154 0 2532 -13 2867 -99 158 -40 254 -77 405 -156 319
-167 635 -445 994 -875 116 -139 266 -334 266 -346 0 -5 -1465 -8 -3255 -8
l-3255 0 -6 -26 c-6 -24 -2 -138 12 -331 l6 -83 2867 0 c2107 0 2900 3 2995
12 98 8 133 8 147 0 13 -8 100 -12 283 -12 l265 0 -16 -46 c-40 -118 -154
-230 -276 -271 -49 -17 -206 -18 -3144 -21 -1701 -1 -3093 -3 -3093 -5 4 -48
63 -304 87 -377 l18 -55 3020 -3 c3319 -2 3101 -6 3276 58 225 82 411 259 504
478 60 143 70 199 69 387 0 155 -3 178 -27 260 -46 151 -123 293 -253 465
-325 431 -711 839 -957 1013 -328 232 -727 365 -1267 421 -389 41 -1072 56
-2677 56 l-1283 0 -39 -77z"/>
<path d="M940 6150 c-19 -36 -70 -329 -70 -405 0 -3 772 -5 1715 -5 l1715 0 0
215 0 215 -1675 0 c-1653 0 -1674 0 -1685 -20z"/>
<path d="M5126 3773 l-4068 -3 5 -28 c7 -36 45 -142 56 -156 4 -6 11 -24 15
-41 9 -38 65 -176 78 -192 8 -10 801 -13 3904 -13 l3893 0 76 156 c42 85 81
170 87 187 9 31 27 99 24 95 0 -2 -1832 -4 -4070 -5z"/>
</g>
</svg>
