<svg xmlns="http://www.w3.org/2000/svg" width="800" height="770" viewBox="0 0 800 770" version="1.1"><path d="M 364.500 34.586 C 362.300 34.806, 354.852 35.448, 347.949 36.012 C 281.803 41.424, 221.146 65.771, 168.589 108.006 C 65.559 190.801, 11.678 336.820, 39.996 456.500 C 43.844 472.765, 50.254 491.429, 56.135 503.500 C 61.263 514.024, 61.395 513.653, 58.085 498 C 50.713 463.133, 50.878 419.967, 58.518 384.500 C 66.664 346.687, 82.513 312.274, 104.048 285.637 C 107.221 281.711, 111.377 277.004, 113.284 275.175 L 116.750 271.850 117.462 276.675 C 118.780 285.607, 124.795 307.466, 129.529 320.532 C 140.633 351.174, 157.527 380.863, 179.317 408.026 C 187.949 418.787, 206.622 439, 207.930 439 C 208.329 439, 209.180 433.106, 209.821 425.902 C 215.984 356.603, 257.179 299.650, 325.803 265.553 C 340.335 258.333, 349.141 254.791, 366.869 249.038 L 381.239 244.375 372.592 240.437 C 365.918 237.398, 363.781 235.930, 363.223 234 C 362.825 232.625, 362.512 224.300, 362.527 215.500 C 362.551 201.214, 362.847 198.429, 365.292 189.500 C 366.797 184, 370.486 174.550, 373.489 168.500 C 390.291 134.647, 425.088 106.005, 469.435 89.521 C 487.689 82.737, 521.988 75.182, 535.682 74.930 C 537.782 74.891, 540.400 74.506, 541.500 74.075 C 543.198 73.409, 542.593 72.836, 537.500 70.284 C 528.566 65.808, 508.152 57.712, 494 53.034 C 469.505 44.937, 445.408 39.641, 419 36.551 C 405.757 35.001, 372.387 33.798, 364.500 34.586 M 263.242 98.432 C 246.820 103.819, 236.529 109.374, 228.849 116.995 C 219.447 126.325, 217.272 133.947, 220.489 146.297 C 223.119 156.392, 231.540 170.494, 241.960 182.250 C 248.115 189.194, 247.363 189.322, 274 176.792 C 278.675 174.593, 285.200 171.545, 288.500 170.018 C 291.800 168.492, 297.425 165.883, 301 164.220 C 304.575 162.557, 310.425 159.863, 314 158.233 C 324.043 153.656, 329.636 151.079, 340.750 145.908 C 346.387 143.285, 351 141.363, 351 141.638 C 351 141.912, 352.350 141.175, 354 140 C 355.650 138.825, 357 138.148, 357 138.496 C 357 138.844, 358.688 138.219, 360.750 137.107 C 365.784 134.395, 378.161 128.776, 379.881 128.423 C 380.640 128.266, 381.705 127.695, 382.248 127.152 C 384.398 125.002, 284.661 94.905, 275.808 95.033 C 274.539 95.052, 268.884 96.581, 263.242 98.432 M 715.485 205.500 C 721.126 222.996, 725.037 239.638, 727.118 255 C 728.779 267.267, 728.773 299.799, 727.107 312 C 719.414 368.350, 695.726 419.833, 654.560 469.675 C 642.237 484.595, 615.190 511.368, 599.136 524.537 C 583.419 537.431, 583.015 536.706, 606 536.862 C 643.338 537.117, 674.659 527.546, 706 506.306 L 715.500 499.868 705.500 509.980 C 686.541 529.151, 662.895 547.753, 640.620 561.022 C 634.779 564.502, 630 567.720, 630 568.174 C 630 569.479, 633.879 569.176, 652.282 566.434 C 672.771 563.381, 693.414 559.182, 711.960 554.297 C 719.407 552.335, 726.400 550.679, 727.500 550.615 C 730.162 550.462, 743.378 536.852, 752.155 525.227 C 776.407 493.101, 791.133 458.010, 797.655 416.797 C 800.506 398.784, 799.977 334.493, 797.003 337.645 C 796.560 338.115, 793.695 344.042, 790.636 350.815 C 773.697 388.319, 748.567 423.776, 722.291 447.244 C 716.906 452.054, 712.198 455.991, 711.829 455.994 C 711.460 455.997, 714.745 450.038, 719.129 442.750 C 739.568 408.775, 753.798 375.478, 760.049 347 C 763.113 333.039, 763.837 306.701, 761.536 292.884 C 757.464 268.428, 745.838 243.416, 727.004 218.590 C 717.900 206.591, 714.642 202.888, 715.485 205.500" stroke="none" fill="#9c048c" fill-rule="evenodd"/><path d="M 268.408 1.030 C 262.570 2.188, 252.335 6.666, 246.500 10.615 C 238.767 15.849, 234.187 20.366, 221.267 35.500 C 190.128 71.975, 175.056 80.461, 132.500 85.477 C 115.552 87.475, 105.027 90.834, 95.161 97.393 C 86.664 103.042, 81.883 108.380, 77.951 116.610 C 72.861 127.262, 71.786 134.836, 71.372 162.937 C 71.035 185.811, 70.797 188.788, 69.011 192.478 C 65.765 199.182, 57.138 208.827, 42.900 221.669 C 13.176 248.479, 6.689 257.751, 5.407 275.257 C 4.582 286.535, 6.728 298.498, 13.523 320.500 C 20.318 342.502, 22.393 353.674, 21.728 364.656 C 21.147 374.232, 19.087 379.312, 9.668 394.399 C 2.005 406.671, -0 411.548, 0 417.916 C 0 426.150, 8.489 443.593, 20.293 459.613 C 24.891 465.854, 48.870 490.463, 49.621 489.712 C 49.793 489.540, 48.337 484.697, 46.384 478.950 C 21.793 406.563, 30.104 316.827, 68.932 235.500 C 112.113 145.056, 188.056 77.257, 277.220 49.550 C 303.273 41.453, 341.187 35.004, 362.750 35.001 C 365.637 35, 368 34.607, 368 34.127 C 368 33.647, 366.020 31.430, 363.600 29.199 C 348.108 14.919, 328.362 5.258, 306.975 1.494 C 297.963 -0.092, 275.434 -0.363, 268.408 1.030 M 541.500 74.064 C 540.400 74.502, 537.782 74.891, 535.682 74.930 C 521.988 75.182, 487.689 82.737, 469.435 89.521 C 434.666 102.444, 404.194 123.996, 385.372 148.976 C 377.134 159.909, 368.774 176.779, 365.292 189.500 C 362.847 198.429, 362.551 201.214, 362.527 215.500 C 362.512 224.300, 362.821 232.625, 363.214 234 C 363.758 235.905, 365.744 237.312, 371.555 239.913 C 375.750 241.790, 379.766 243.909, 380.479 244.622 C 382.704 246.846, 403.868 258.042, 418.344 264.652 C 474.309 290.206, 534.582 304.788, 592 306.663 C 638.533 308.183, 674.642 300.234, 691.600 284.735 C 698.035 278.854, 700.390 274.132, 702.636 262.607 C 704.143 254.875, 704.211 252.469, 703.163 244.171 C 699.253 213.209, 679.059 178.981, 644.040 143.957 C 619.236 119.149, 592.210 99.153, 559 81.037 C 545.157 73.486, 544.057 73.048, 541.500 74.064 M 263.242 98.432 C 246.820 103.819, 236.529 109.374, 228.849 116.995 C 219.447 126.325, 217.272 133.947, 220.489 146.297 C 223.119 156.392, 231.540 170.494, 241.960 182.250 C 248.115 189.194, 247.363 189.322, 274 176.792 C 278.675 174.593, 285.200 171.545, 288.500 170.018 C 291.800 168.492, 297.425 165.883, 301 164.220 C 304.575 162.557, 310.425 159.863, 314 158.233 C 324.043 153.656, 329.636 151.079, 340.750 145.908 C 346.387 143.285, 351 141.363, 351 141.638 C 351 141.912, 352.350 141.175, 354 140 C 355.650 138.825, 357 138.148, 357 138.496 C 357 138.844, 358.688 138.219, 360.750 137.107 C 365.784 134.395, 378.161 128.776, 379.881 128.423 C 380.640 128.266, 381.705 127.695, 382.248 127.152 C 384.398 125.002, 284.661 94.905, 275.808 95.033 C 274.539 95.052, 268.884 96.581, 263.242 98.432 M 489.684 157.424 C 482.446 160.052, 478.998 164.985, 479.004 172.700 C 479.012 183.257, 487.802 189.989, 498.673 187.766 C 507.010 186.061, 512.756 175.850, 510.029 167.587 C 508.751 163.715, 501.929 157.007, 499.247 156.986 C 498.286 156.979, 496.600 156.762, 495.500 156.506 C 494.400 156.249, 491.783 156.662, 489.684 157.424 M 110.097 278.626 C 86.613 304.220, 67.935 342.053, 58.961 382.204 C 46.308 438.817, 53.027 507.707, 75.510 551.887 C 93.352 586.947, 115.581 616.630, 147.133 647.528 C 210.646 709.726, 291.946 750.545, 381 764.949 C 432.830 773.331, 493.725 771.383, 539.500 759.877 C 642.247 734.050, 727.989 667.134, 774.466 576.500 C 781.071 563.619, 791.336 540.003, 790.634 539.301 C 790.399 539.066, 786.578 541.804, 782.142 545.385 C 756.742 565.892, 717.390 587.246, 683.196 599.077 C 671.288 603.197, 657.102 606.980, 653.514 606.993 C 652.422 606.997, 657.597 603.499, 665.014 599.220 C 687.512 586.240, 706.960 572.214, 722.750 557.578 C 729.317 551.490, 730.515 549.341, 726.750 550.400 C 714.818 553.755, 695.800 558.408, 683.960 560.868 C 665.458 564.712, 634.473 569.324, 631.268 568.711 C 629.645 568.401, 625.662 569.781, 619.649 572.737 C 581.940 591.278, 543.384 602.966, 501.236 608.633 C 493.941 609.614, 488.091 610.751, 488.236 611.159 C 488.772 612.669, 502.852 623.398, 514.333 631.046 C 540.700 648.610, 564.346 657.197, 590.875 658.841 L 601.500 659.500 590.011 661.794 C 569.167 665.955, 553.392 667.281, 531.500 666.714 C 508.749 666.124, 495.639 664.179, 476 658.478 C 417.481 641.490, 367.437 609.689, 306.301 550.640 C 296.242 540.925, 296.083 540.821, 295.409 543.505 C 293.437 551.363, 298.050 571.231, 305.079 585.157 C 313.835 602.503, 327.664 621.558, 342.952 637.345 L 352.486 647.190 346.672 644.618 C 343.474 643.204, 336.727 639.730, 331.679 636.897 C 258.716 595.961, 213.664 527.830, 209.375 451.944 L 208.716 440.276 198.585 429.847 C 158.114 388.182, 129.888 336.067, 118.579 282.126 L 116.404 271.752 110.097 278.626" stroke="none" fill="#e30492" fill-rule="evenodd"/></svg>