<?xml version="1.0" encoding="UTF-8"?>
<!DOCTYPE svg PUBLIC "-//W3C//DTD SVG 1.1//EN" "http://www.w3.org/Graphics/SVG/1.1/DTD/svg11.dtd">
<svg xmlns="http://www.w3.org/2000/svg" version="1.1" width="480px" height="480px" style="shape-rendering:geometricPrecision; text-rendering:geometricPrecision; image-rendering:optimizeQuality; fill-rule:evenodd; clip-rule:evenodd" xmlns:xlink="http://www.w3.org/1999/xlink">
<g><path style="opacity:0.956" fill="#cfd7db" d="M 237.5,103.5 C 232.703,103.477 228.036,102.811 223.5,101.5C 220.714,95.3143 218.214,88.981 216,82.5C 210.224,88.122 204.058,93.122 197.5,97.5C 185.182,97.1685 173.182,95.1685 161.5,91.5C 154.474,83.1371 147.808,74.4705 141.5,65.5C 135.833,67.8333 131.833,71.8333 129.5,77.5C 130.857,79.1856 132.19,80.8523 133.5,82.5C 131.068,81.2498 128.734,79.7498 126.5,78C 125.002,75.3363 123.002,73.1696 120.5,71.5C 122.836,66.6505 126.169,62.4839 130.5,59C 145.198,50.2068 160.865,43.5401 177.5,39C 191.308,35.2566 205.141,31.7566 219,28.5C 219.632,50.9317 223.965,72.5983 232,93.5C 233.592,97.0211 235.425,100.354 237.5,103.5 Z M 206.5,42.5 C 207.5,42.5 208.5,42.5 209.5,42.5C 209.66,50.2854 210.66,57.952 212.5,65.5C 211.667,65.8333 210.833,66.1667 210,66.5C 193.097,63.7105 176.263,60.5439 159.5,57C 175.046,51.3701 190.713,46.5368 206.5,42.5 Z M 158.5,68.5 C 174.167,71.2664 189.833,74.0997 205.5,77C 197.797,83.6971 189.297,89.1971 180,93.5C 171.573,86.2405 164.406,77.9072 158.5,68.5 Z"/></g>
<g><path style="opacity:0.945" fill="#b71c1c" d="M 120.5,71.5 C 123.002,73.1696 125.002,75.3363 126.5,78C 128.734,79.7498 131.068,81.2498 133.5,82.5C 142.397,86.6873 151.73,89.6873 161.5,91.5C 173.182,95.1685 185.182,97.1685 197.5,97.5C 206.087,99.1081 214.754,100.441 223.5,101.5C 228.036,102.811 232.703,103.477 237.5,103.5C 271.277,107.622 304.277,115.122 336.5,126C 367.613,138.304 394.78,156.47 418,180.5C 422.203,185.738 426.036,191.238 429.5,197C 380.262,203.347 331.595,212.847 283.5,225.5C 283.265,224.903 282.765,224.57 282,224.5C 278.461,225.32 275.294,226.654 272.5,228.5C 262.976,230.564 253.643,233.231 244.5,236.5C 238.669,237.275 233.002,238.775 227.5,241C 224.719,241.522 222.385,242.689 220.5,244.5C 210.695,247.435 201.029,250.768 191.5,254.5C 187.569,255.132 184.235,256.799 181.5,259.5C 180.833,259.5 180.167,259.5 179.5,259.5C 174.738,260.716 170.405,262.716 166.5,265.5C 165.833,265.5 165.5,265.833 165.5,266.5C 155.883,270.642 146.55,275.308 137.5,280.5C 118.167,290.167 98.8333,299.833 79.5,309.5C 101.464,289.37 122.631,268.37 143,246.5C 155.004,232.495 163.337,216.495 168,198.5C 172.122,171.108 166.789,145.774 152,122.5C 141.589,112.093 131.922,101.093 123,89.5C 120.653,85.8085 119.153,81.8085 118.5,77.5C 118.599,75.2014 119.266,73.2014 120.5,71.5 Z M 146.5,100.5 C 146.735,99.9033 147.235,99.5699 148,99.5C 164.299,103.689 180.799,106.856 197.5,109C 187.76,115.403 178.594,122.57 170,130.5C 164.211,118.88 156.377,108.88 146.5,100.5 Z M 211.5,113.5 C 212.376,113.369 213.043,113.702 213.5,114.5C 217.991,124.284 219.658,134.45 218.5,145C 206.294,141.866 193.961,138.866 181.5,136C 190.674,127.263 200.674,119.763 211.5,113.5 Z M 225.5,113.5 C 239.902,115.153 254.235,117.319 268.5,120C 255.519,126.169 243.186,133.335 231.5,141.5C 230.283,131.997 228.283,122.663 225.5,113.5 Z M 290.5,124.5 C 307.497,127.555 323.831,132.721 339.5,140C 318.581,145.14 298.248,151.973 278.5,160.5C 278.167,160.167 277.833,159.833 277.5,159.5C 282.831,148.169 287.165,136.502 290.5,124.5 Z M 275.5,128.5 C 276.376,128.369 277.043,128.702 277.5,129.5C 273.575,142.012 268.075,153.678 261,164.5C 252.741,160.62 244.574,156.62 236.5,152.5C 248.989,143.68 261.989,135.68 275.5,128.5 Z M 175.5,147.5 C 187.703,148.38 199.703,151.214 211.5,156C 200.876,163.566 190.71,171.733 181,180.5C 180.359,169.162 178.526,158.162 175.5,147.5 Z M 345.5,149.5 C 346.239,149.369 346.906,149.536 347.5,150C 336.664,168.501 323.997,185.668 309.5,201.5C 299.239,191.38 288.239,182.214 276.5,174C 283.885,170.091 291.551,166.758 299.5,164C 314.794,158.622 330.127,153.789 345.5,149.5 Z M 359.5,149.5 C 378.578,159.548 395.245,172.715 409.5,189C 380.28,193.247 351.28,198.247 322.5,204C 337.699,187.766 350.032,169.6 359.5,149.5 Z M 227.5,161.5 C 235.54,164.353 243.207,168.02 250.5,172.5C 239.952,178.025 229.452,183.692 219,189.5C 222.704,180.544 225.538,171.211 227.5,161.5 Z M 212.5,168.5 C 213.376,168.369 214.043,168.702 214.5,169.5C 210.468,179.897 205.635,189.897 200,199.5C 195.245,196.872 190.412,194.372 185.5,192C 194.572,184.149 203.572,176.316 212.5,168.5 Z M 265.5,180.5 C 278.453,188.273 290.12,197.773 300.5,209C 278.409,215.021 256.409,221.021 234.5,227C 246.258,212.416 256.591,196.916 265.5,180.5 Z M 248.5,186.5 C 240.918,199.982 232.085,212.649 222,224.5C 219.769,217.605 215.936,211.771 210.5,207C 223.061,199.887 235.728,193.054 248.5,186.5 Z M 174.5,216.5 C 176.095,211.548 177.595,206.548 179,201.5C 182.705,202.936 186.205,204.769 189.5,207C 184.782,210.688 179.782,213.855 174.5,216.5 Z M 176.5,248.5 C 185.879,237.952 194.713,226.952 203,215.5C 209.122,220.745 212.289,227.412 212.5,235.5C 200.295,239.27 188.295,243.603 176.5,248.5 Z M 177.5,229.5 C 169.773,239.562 160.773,248.228 150.5,255.5C 156.907,244.093 165.907,235.426 177.5,229.5 Z"/></g>
<g><path style="opacity:0.957" fill="#cfd8db" d="M 283.5,225.5 C 299.529,298.012 287.862,365.679 248.5,428.5C 201.684,430.753 156.351,423.586 112.5,407C 96.4693,400.621 82.3026,391.455 70,379.5C 56.9761,362.638 55.6427,344.972 66,326.5C 69.603,320.07 74.103,314.403 79.5,309.5C 98.8333,299.833 118.167,290.167 137.5,280.5C 132.004,293.896 132.17,307.229 138,320.5C 150.07,304.027 159.237,286.027 165.5,266.5C 166.167,266.5 166.5,266.167 166.5,265.5C 170.405,262.716 174.738,260.716 179.5,259.5C 173.482,281.199 164.482,301.532 152.5,320.5C 171.635,314.766 189.969,307.099 207.5,297.5C 195.846,286.853 187.18,274.187 181.5,259.5C 184.235,256.799 187.569,255.132 191.5,254.5C 196.052,266.599 202.886,277.265 212,286.5C 216.305,272.806 219.139,258.806 220.5,244.5C 222.385,242.689 224.719,241.522 227.5,241C 233.002,238.775 238.669,237.275 244.5,236.5C 254.624,241.391 264.958,246.058 275.5,250.5C 276.046,242.909 275.046,235.576 272.5,228.5C 275.294,226.654 278.461,225.32 282,224.5C 282.765,224.57 283.265,224.903 283.5,225.5 Z M 231.5,243.5 C 244.763,249.424 258.096,255.257 271.5,261C 256.491,271.493 240.824,280.993 224.5,289.5C 224.167,289.167 223.833,288.833 223.5,288.5C 227.569,273.752 230.236,258.752 231.5,243.5 Z M 179.5,259.5 C 180.167,259.5 180.833,259.5 181.5,259.5C 187.18,274.187 195.846,286.853 207.5,297.5C 189.969,307.099 171.635,314.766 152.5,320.5C 164.482,301.532 173.482,281.199 179.5,259.5 Z M 278.5,269.5 C 279.701,282.677 279.701,296.011 278.5,309.5C 261.665,309.767 245.665,306.267 230.5,299C 247.065,289.894 263.065,280.06 278.5,269.5 Z M 121.5,289.5 C 122.376,289.369 123.043,289.702 123.5,290.5C 122.374,296.782 122.207,303.115 123,309.5C 124.27,316.028 126.103,322.361 128.5,328.5C 116.592,330.873 104.592,332.707 92.5,334C 86.8041,334.83 81.1375,334.663 75.5,333.5C 80.7542,324.843 87.0876,317.009 94.5,310C 103.4,302.919 112.4,296.086 121.5,289.5 Z M 218.5,305.5 C 232.5,313.221 247.5,318.055 263.5,320C 242.693,331.487 221.526,342.32 200,352.5C 204.27,342.612 208.603,332.612 213,322.5C 215.34,316.981 217.173,311.314 218.5,305.5 Z M 202.5,312.5 C 203.239,312.369 203.906,312.536 204.5,313C 199.117,327.995 192.117,342.162 183.5,355.5C 170.529,350.353 158.862,343.186 148.5,334C 167.276,328.471 185.276,321.304 202.5,312.5 Z M 275.5,325.5 C 273.749,342.167 269.582,358.501 263,374.5C 242.741,373.095 222.907,369.261 203.5,363C 228.317,351.761 252.317,339.261 275.5,325.5 Z M 120.5,340.5 C 121.552,340.351 122.552,340.517 123.5,341C 112.75,355.088 101.25,368.588 89,381.5C 75.6592,373.151 69.4926,361.151 70.5,345.5C 87.5321,346.063 104.199,344.397 120.5,340.5 Z M 138.5,340.5 C 148.603,349.728 159.937,357.228 172.5,363C 152.065,372.087 130.732,378.254 108.5,381.5C 107.5,381.167 106.5,380.833 105.5,380.5C 117.278,367.73 128.278,354.397 138.5,340.5 Z M 188.5,369.5 C 205.428,375.898 222.761,380.731 240.5,384C 215.216,393.488 189.216,399.821 162.5,403C 172.553,392.796 181.219,381.63 188.5,369.5 Z M 166.5,377.5 C 168.028,377.517 168.528,378.184 168,379.5C 160.654,389.512 151.988,398.179 142,405.5C 130.524,402.12 119.357,397.953 108.5,393C 128.533,389.994 147.866,384.827 166.5,377.5 Z M 255.5,389.5 C 256.239,389.369 256.906,389.536 257.5,390C 252.881,399.407 247.881,408.573 242.5,417.5C 220.333,418.764 198.333,417.264 176.5,413C 203.881,408.258 230.214,400.424 255.5,389.5 Z"/></g>
</svg>
