<?xml version="1.0" standalone="no"?>
<!DOCTYPE svg PUBLIC "-//W3C//DTD SVG 20010904//EN"
 "http://www.w3.org/TR/2001/REC-SVG-20010904/DTD/svg10.dtd">
<svg version="1.0" xmlns="http://www.w3.org/2000/svg"
 width="400.000000pt" height="400.000000pt" viewBox="0 0 400.000000 400.000000"
 preserveAspectRatio="xMidYMid meet">

<g transform="translate(0.000000,400.000000) scale(0.100000,-0.100000)"
fill="#000000" stroke="none">
<path d="M780 3567 c0 -37 33 -76 189 -225 239 -228 325 -354 372 -547 31
-126 31 -335 0 -449 -44 -163 -125 -321 -255 -494 -95 -126 -329 -368 -484
-502 -61 -52 -109 -96 -107 -98 4 -5 36 12 124 65 38 24 152 85 252 137 598
307 1287 552 2174 771 264 65 613 139 718 151 68 8 68 5 -5 112 -78 113 -254
285 -374 365 -179 119 -429 227 -709 306 -200 56 -370 89 -920 176 -713 113
-898 156 -952 223 -19 22 -23 24 -23 9z m300 -174 c119 -32 127 -36 138 -76 6
-17 26 -86 46 -151 20 -65 35 -120 33 -122 -1 -2 -26 32 -55 75 -52 79 -167
204 -252 275 -25 21 -36 35 -25 31 11 -4 63 -18 115 -32z m405 -88 c105 -20
198 -39 208 -43 15 -6 -1 -20 -76 -66 -53 -33 -130 -88 -171 -123 -42 -34 -78
-63 -80 -63 -2 0 -9 21 -15 47 -12 44 -57 166 -96 257 l-16 39 28 -6 c15 -4
114 -23 218 -42z m310 -146 c20 -85 32 -309 17 -309 -9 0 -310 86 -370 106
-10 3 -9 9 5 27 29 37 148 142 236 208 91 69 87 70 112 -32z m310 35 c105 -19
210 -40 235 -48 l45 -12 -145 -72 c-80 -40 -192 -101 -249 -137 -57 -36 -105
-65 -107 -65 -2 0 -4 18 -4 39 0 91 -30 239 -65 325 -8 18 -5 19 46 12 30 -4
140 -23 244 -42z m315 -214 c-34 -103 -146 -330 -162 -330 -6 0 -43 18 -82 39
-39 21 -105 53 -146 71 -41 18 -79 36 -83 40 -10 9 199 147 373 247 120 68
125 70 128 48 2 -13 -11 -65 -28 -115z m206 96 c223 -64 515 -178 484 -189 -8
-3 -73 -20 -145 -38 -152 -37 -338 -95 -484 -151 -57 -21 -106 -37 -108 -34
-3 3 11 42 30 88 41 95 75 217 84 301 3 31 9 57 12 57 4 0 61 -15 127 -34z
m-1037 -267 c74 -22 141 -43 148 -48 10 -5 0 -19 -39 -51 -29 -25 -105 -93
-168 -151 l-115 -106 0 126 c0 69 -4 161 -8 204 l-8 78 28 -7 c15 -3 88 -24
162 -45z m1541 -18 c-63 -93 -430 -561 -439 -561 -3 0 -22 24 -41 52 -44 66
-147 176 -223 240 l-58 48 48 21 c200 87 682 258 731 259 22 0 21 -3 -18 -59z
m200 -12 c51 -33 121 -81 154 -107 80 -60 277 -253 270 -264 -3 -4 -25 -8 -49
-8 -113 0 -534 -65 -777 -120 -72 -17 -135 -30 -141 -30 -6 0 27 39 74 88 152
156 233 266 315 426 21 42 44 76 49 76 6 0 53 -27 105 -61z m-1309 -145 c75
-37 128 -69 123 -74 -5 -5 -72 -42 -149 -83 -77 -41 -167 -91 -200 -111 -33
-20 -63 -36 -66 -36 -4 0 10 35 31 77 21 42 53 125 71 185 20 63 39 108 47
108 7 0 71 -30 143 -66z m-252 -23 c-26 -92 -78 -213 -125 -294 -20 -34 -38
-64 -40 -66 -2 -2 -26 17 -53 42 -28 26 -66 54 -85 64 -20 9 -36 20 -36 24 0
16 348 315 356 306 2 -2 -6 -36 -17 -76z m582 -172 c123 -85 286 -223 273
-231 -5 -3 -45 -16 -89 -28 -163 -45 -464 -140 -599 -189 -77 -28 -141 -50
-142 -48 -2 1 54 59 123 127 124 123 254 276 316 371 18 27 35 49 38 49 3 0
39 -23 80 -51z m-220 3 c-33 -61 -396 -522 -411 -522 -4 0 -10 31 -13 68 -3
38 -17 98 -33 136 -22 57 -25 70 -13 77 62 41 462 259 475 259 3 0 0 -8 -5
-18z m-678 -209 c31 -21 56 -41 54 -46 -3 -10 -260 -207 -265 -203 -1 2 14 30
33 62 20 32 50 96 67 142 17 45 36 82 42 82 6 0 37 -17 69 -37z m175 -190 c17
-34 35 -81 38 -105 l6 -43 -174 -69 c-95 -37 -229 -95 -297 -127 -68 -33 -126
-58 -127 -56 -2 2 36 32 84 68 122 92 275 233 352 323 35 42 69 75 75 73 5 -2
25 -31 43 -64z m-199 -24 c-78 -91 -238 -230 -358 -311 -57 -39 -100 -65 -96
-57 9 14 108 128 175 200 34 37 321 241 329 233 2 -2 -21 -31 -50 -65z"/>
</g>
</svg>
